<svg width="50" height="50" viewBox="0 0 50 50" fill="none" xmlns="http://www.w3.org/2000/svg">
<rect width="50" height="50" fill="white"/>
<path d="M10.8062 26.1297C10.6609 25.9125 10.4172 25.7812 10.1562 25.7812H8.59375C8.1625 25.7812 7.8125 26.1312 7.8125 26.5625V31.25C7.8125 31.6812 8.1625 32.0312 8.59375 32.0312H13.2812C13.5703 32.0312 13.8344 31.8719 13.9687 31.6187C14.1062 31.3641 14.0906 31.0562 13.9313 30.8156L10.8062 26.1297ZM9.375 30.4687V27.3437H9.7375L11.8203 30.4687H9.375ZM39.8438 25.7812C39.5828 25.7812 39.3391 25.9125 39.1937 26.1297L36.0687 30.8172C35.9078 31.0562 35.8937 31.3656 36.0312 31.6203C36.1672 31.8734 36.4312 32.0328 36.7188 32.0328H41.4062C41.8375 32.0328 42.1875 31.6828 42.1875 31.2516V26.5641C42.1875 26.1328 41.8375 25.7828 41.4062 25.7828H39.8438V25.7812ZM40.625 30.4687H38.1797L40.2625 27.3437H40.625V30.4687ZM23.4375 28.9062C23.8687 28.9062 24.2188 28.5562 24.2188 28.125V26.5625C24.2188 26.1312 23.8687 25.7812 23.4375 25.7812C23.0063 25.7812 22.6562 26.1312 22.6562 26.5625V28.125C22.6562 28.5562 23.0063 28.9062 23.4375 28.9062ZM20.3125 28.9062C20.7437 28.9062 21.0938 28.5562 21.0938 28.125V26.5625C21.0938 26.1312 20.7437 25.7812 20.3125 25.7812C19.8813 25.7812 19.5312 26.1312 19.5312 26.5625V28.125C19.5312 28.5562 19.8813 28.9062 20.3125 28.9062ZM26.5625 28.9062C26.9937 28.9062 27.3438 28.5562 27.3438 28.125V26.5625C27.3438 26.1312 26.9937 25.7812 26.5625 25.7812C26.1313 25.7812 25.7812 26.1312 25.7812 26.5625V28.125C25.7812 28.5562 26.1313 28.9062 26.5625 28.9062ZM29.6875 28.9062C30.1187 28.9062 30.4688 28.5562 30.4688 28.125V26.5625C30.4688 26.1312 30.1187 25.7812 29.6875 25.7812C29.2563 25.7812 28.9062 26.1312 28.9062 26.5625V28.125C28.9062 28.5562 29.2563 28.9062 29.6875 28.9062Z" fill="black"/>
<path d="M44.5312 13.2812H40.7656L40.2672 10.2953C39.9531 8.40469 38.3328 7.03125 36.4156 7.03125H13.5844C11.6656 7.03125 10.0453 8.40469 9.73125 10.2953L9.23438 13.2812H5.46875C4.17656 13.2812 3.125 14.3328 3.125 15.625V17.1875C3.125 18.4797 4.17656 19.5312 5.46875 19.5312H8.19219L7.92031 21.1625C6.0875 21.4828 4.6875 23.0766 4.6875 25V34.375V35.9375C4.6875 36.9547 5.34219 37.8141 6.25 38.1375V40.625C6.25 41.9172 7.30156 42.9688 8.59375 42.9688H11.7188C13.0109 42.9688 14.0625 41.9172 14.0625 40.625V38.1375C14.9703 37.8141 15.625 36.9547 15.625 35.9375V35.1562H34.375V35.9375C34.375 36.9547 35.0297 37.8141 35.9375 38.1375V40.625C35.9375 41.9172 36.9891 42.9688 38.2812 42.9688H41.4062C42.6984 42.9688 43.75 41.9172 43.75 40.625V38.1375C44.6578 37.8141 45.3125 36.9547 45.3125 35.9375V34.375V25C45.3125 23.0766 43.9125 21.4828 42.0797 21.1625L41.8078 19.5312H44.5312C45.8234 19.5312 46.875 18.4797 46.875 17.1875V15.625C46.875 14.3328 45.8234 13.2812 44.5312 13.2812ZM11.2734 10.5516C11.4625 9.41719 12.4344 8.59375 13.5844 8.59375H24.2188V10.1562H22.6562C22.225 10.1562 21.875 10.5062 21.875 10.9375C21.875 11.3688 22.225 11.7188 22.6562 11.7188H27.3438C27.775 11.7188 28.125 11.3688 28.125 10.9375C28.125 10.5062 27.775 10.1562 27.3438 10.1562H25.7812V8.59375H36.4156C37.5656 8.59375 38.5375 9.41719 38.7266 10.5516L40.4844 21.0938H39.0625H10.9375H9.51562L11.2734 10.5516ZM37.6625 22.6562L32.8359 30.4688H17.1641L12.3375 22.6562H37.6625ZM5.46875 17.9688C5.03906 17.9688 4.6875 17.6172 4.6875 17.1875V15.625C4.6875 15.1953 5.03906 14.8438 5.46875 14.8438H8.97344L8.45312 17.9688H5.46875ZM12.5 40.625C12.5 41.0547 12.1484 41.4062 11.7188 41.4062H10.9375C10.9375 40.975 10.5875 40.625 10.1562 40.625C9.725 40.625 9.375 40.975 9.375 41.4062H8.59375C8.16406 41.4062 7.8125 41.0547 7.8125 40.625V38.2812H9.375C9.375 38.7125 9.725 39.0625 10.1562 39.0625C10.5875 39.0625 10.9375 38.7125 10.9375 38.2812H12.5V40.625ZM42.1875 40.625C42.1875 41.0547 41.8359 41.4062 41.4062 41.4062H40.625C40.625 40.975 40.275 40.625 39.8438 40.625C39.4125 40.625 39.0625 40.975 39.0625 41.4062H38.2812C37.8516 41.4062 37.5 41.0547 37.5 40.625V38.2812H39.0625C39.0625 38.7125 39.4125 39.0625 39.8438 39.0625C40.275 39.0625 40.625 38.7125 40.625 38.2812H42.1875V40.625ZM43.75 25V34.375V35.9375C43.75 36.3672 43.3984 36.7188 42.9688 36.7188H36.7188C36.2891 36.7188 35.9375 36.3672 35.9375 35.9375V35.1562H36.7188C37.15 35.1562 37.5 34.8062 37.5 34.375C37.5 33.9438 37.15 33.5938 36.7188 33.5938H13.2812C12.85 33.5938 12.5 33.9438 12.5 34.375C12.5 34.8062 12.85 35.1562 13.2812 35.1562H14.0625V35.9375C14.0625 36.3672 13.7109 36.7188 13.2812 36.7188H7.03125C6.60156 36.7188 6.25 36.3672 6.25 35.9375V34.375V25C6.25 23.7078 7.30156 22.6562 8.59375 22.6562H10.5016L16.0625 31.6609C16.2062 31.8906 16.4578 32.0312 16.7281 32.0312H33.2719C33.5422 32.0312 33.7937 31.8906 33.9375 31.6609L39.4984 22.6562H41.4062C42.6984 22.6562 43.75 23.7078 43.75 25ZM45.3125 17.1875C45.3125 17.6172 44.9609 17.9688 44.5312 17.9688H41.5469L41.0266 14.8438H44.5312C44.9609 14.8438 45.3125 15.1953 45.3125 15.625V17.1875Z" fill="black"/>
</svg>
