<svg width="60" height="40" viewBox="0 0 60 40" fill="none" xmlns="http://www.w3.org/2000/svg">
<g clip-path="url(#clip0)">
<rect width="60" height="40" fill="white"/>
<g opacity="0.1">
<path opacity="0.1" d="M14.3145 2.9339C12.9474 3.25985 11.7187 4.12751 10.8363 5.39003C9.95394 6.65254 9.47213 8.23237 9.47241 9.86214V31.1064C9.47241 31.4814 9.59995 31.841 9.82697 32.1062C10.054 32.3714 10.3619 32.5203 10.6829 32.5203H33.6831V26.9212H26.4199C23.2093 26.9212 20.1303 25.4315 17.8601 22.7799C15.5899 20.1282 14.3145 16.5319 14.3145 12.7819V2.9339Z" fill="#4B4868"/>
<path opacity="0.1" d="M36.6973 26.9212V32.5203H56.671C57.3131 32.5203 57.929 32.2224 58.383 31.6921C58.837 31.1617 59.0921 30.4425 59.0921 29.6925V26.9212H36.6973Z" fill="#4B4868"/>
</g>
<path d="M47.0352 17.0237H42.1568C41.9962 17.0237 41.8423 16.9492 41.7288 16.8166C41.6153 16.684 41.5515 16.5042 41.5515 16.3167V12.7819C41.5515 12.5944 41.6153 12.4146 41.7288 12.282C41.8423 12.1494 41.9962 12.0749 42.1568 12.0749H44.8744C44.9704 12.0755 45.065 12.1027 45.1502 12.1543C45.2355 12.2059 45.309 12.2805 45.3647 12.3719L47.5255 15.9067C47.5898 16.0122 47.6281 16.1363 47.6361 16.2655C47.6441 16.3947 47.6216 16.524 47.571 16.6392C47.5204 16.7545 47.4437 16.8513 47.3492 16.9191C47.2547 16.9869 47.1461 17.0231 47.0352 17.0237Z" fill="#FFC599"/>
<path d="M9.77504 21.5907H18.2488" stroke="#FFC599" stroke-width="3" stroke-linecap="round" stroke-linejoin="round"/>
<path d="M21.2751 21.5907H21.8804" stroke="#FFC599" stroke-width="3" stroke-linecap="round" stroke-linejoin="round"/>
<path d="M50.3157 16.9671L46.1394 10.4631C46.0267 10.2875 45.8804 10.1449 45.7124 10.0468C45.5443 9.9486 45.3589 9.89749 45.171 9.89749H37.9078C37.5867 9.89749 37.2788 10.0465 37.0518 10.3116C36.8248 10.5768 36.6973 10.9364 36.6973 11.3114V32.5203H56.671C57.3131 32.5203 57.9289 32.2224 58.383 31.6921C58.837 31.1617 59.0921 30.4425 59.0921 29.6925V21.2089C59.0921 20.4589 58.837 19.7396 58.383 19.2093C57.9289 18.679 57.3131 18.3811 56.671 18.3811H52.7368C52.267 18.3811 51.8036 18.2533 51.3834 18.0079C50.9632 17.7625 50.5976 17.4061 50.3157 16.9671V16.9671Z" stroke="#4B4668" stroke-width="3" stroke-linecap="round" stroke-linejoin="round"/>
<path d="M47.8947 38.9396C50.9032 38.9396 53.3421 36.0909 53.3421 32.5769C53.3421 29.0629 50.9032 26.2142 47.8947 26.2142C44.8862 26.2142 42.4473 29.0629 42.4473 32.5769C42.4473 36.0909 44.8862 38.9396 47.8947 38.9396Z" fill="white" stroke="#4B4668" stroke-width="3" stroke-linecap="round" stroke-linejoin="round"/>
<path d="M40.0383 21.5907H42.4594" stroke="#4B4668" stroke-width="3" stroke-linecap="round" stroke-linejoin="round"/>
<path d="M34.7423 38.9396H56.1868" stroke="#4B4668" stroke-width="3" stroke-linecap="round" stroke-linejoin="round"/>
<path d="M12.7408 38.9396H30.5236" stroke="#4B4668" stroke-width="3" stroke-linecap="round" stroke-linejoin="round"/>
<path d="M9.77504 38.9396H10.2714" stroke="#4B4668" stroke-width="3" stroke-linecap="round" stroke-linejoin="round"/>
<path d="M45.522 18.4376H40.6436C40.4831 18.4376 40.3291 18.3631 40.2156 18.2305C40.1021 18.098 40.0383 17.9181 40.0383 17.7306V14.1958C40.0383 14.0083 40.1021 13.8285 40.2156 13.6959C40.3291 13.5634 40.4831 13.4889 40.6436 13.4889H43.3612C43.4573 13.4894 43.5518 13.5166 43.6371 13.5682C43.7223 13.6198 43.7958 13.6944 43.8515 13.7858L46.0123 17.3206C46.0766 17.4261 46.1149 17.5503 46.1229 17.6794C46.131 17.8086 46.1085 17.9379 46.0579 18.0532C46.0073 18.1684 45.9305 18.2653 45.8361 18.333C45.7416 18.4008 45.6329 18.437 45.522 18.4376V18.4376Z" stroke="#4B4668" stroke-width="3" stroke-linecap="round" stroke-linejoin="round"/>
<path d="M6.14345 24.4468H9.16978" stroke="#4B4668" stroke-width="3" stroke-linecap="round" stroke-linejoin="round"/>
<path d="M7.95924 26.2142H9.16978" stroke="#4B4668" stroke-width="3" stroke-linecap="round" stroke-linejoin="round"/>
<g opacity="0.2">
<path opacity="0.2" d="M38.8823 1.06045V4.59527" stroke="#4B4668" stroke-width="3" stroke-linecap="round" stroke-linejoin="round"/>
<path opacity="0.2" d="M40.3954 2.82786H37.3691" stroke="#4B4668" stroke-width="3" stroke-linecap="round" stroke-linejoin="round"/>
</g>
<g opacity="0.2">
<path opacity="0.2" d="M2.42107 15.5461V19.0809" stroke="#4B4668" stroke-width="3" stroke-linecap="round" stroke-linejoin="round"/>
<path opacity="0.2" d="M3.93423 17.3135H0.907898" stroke="#4B4668" stroke-width="3" stroke-linecap="round" stroke-linejoin="round"/>
</g>
<path opacity="0.5" d="M53.6568 13.8424C54.4925 13.8424 55.17 13.0511 55.17 12.0749C55.17 11.0988 54.4925 10.3075 53.6568 10.3075C52.8211 10.3075 52.1436 11.0988 52.1436 12.0749C52.1436 13.0511 52.8211 13.8424 53.6568 13.8424Z" stroke="#FFC599" stroke-width="3" stroke-linecap="round" stroke-linejoin="round"/>
<path d="M9.4603 9.89749V31.1064C9.4603 31.4814 9.58784 31.841 9.81486 32.1062C10.0419 32.3714 10.3498 32.5203 10.6708 32.5203H33.6709V4.24179C33.6709 3.86679 33.5434 3.50715 33.3164 3.24199C33.0894 2.97682 32.7815 2.82786 32.4604 2.82786H15.513C13.9077 2.82786 12.3682 3.57269 11.2331 4.89851C10.098 6.22432 9.4603 8.02251 9.4603 9.89749V9.89749Z" stroke="#4B4668" stroke-width="3" stroke-linecap="round" stroke-linejoin="round"/>
<path d="M21.5656 38.9396C24.5741 38.9396 27.013 36.0909 27.013 32.5769C27.013 29.0629 24.5741 26.2142 21.5656 26.2142C18.5571 26.2142 16.1182 29.0629 16.1182 32.5769C16.1182 36.0909 18.5571 38.9396 21.5656 38.9396Z" fill="white" stroke="#4B4668" stroke-width="3" stroke-linecap="round" stroke-linejoin="round"/>
</g>
<defs>
<clipPath id="clip0">
<rect width="60" height="40" fill="white"/>
</clipPath>
</defs>
</svg>
