<svg width="50" height="50" viewBox="0 0 50 50" fill="none" xmlns="http://www.w3.org/2000/svg">
<g clip-path="url(#clip0)">
<rect width="50" height="50" fill="white"/>
<path d="M49.9851 25C49.9851 38.799 38.7989 49.9853 24.9999 49.9853C11.2011 49.9853 0.014946 38.799 0.014946 25C0.014946 11.2009 11.2011 0.014679 24.9999 0.014679C38.7989 0.0146539 49.9851 11.2009 49.9851 25Z" fill="#BEC7CB" stroke="black" stroke-width="1.46509" stroke-miterlimit="18.2"/>
<path d="M25 48.9657C38.2303 48.9657 48.9556 38.2358 48.9556 24.9999C48.9556 11.764 38.2303 1.03421 25 1.03421C11.7697 1.03421 1.04436 11.764 1.04436 24.9999C1.04436 38.2358 11.7697 48.9657 25 48.9657Z" fill="url(#paint0_linear)" stroke="black" stroke-width="1.25436"/>
<path d="M43.7091 24.8891C43.7102 35.4731 35.2173 44.0537 24.7405 44.0537C14.2635 44.0537 5.77068 35.4731 5.77188 24.8891C5.77068 14.3052 14.2636 5.72455 24.7405 5.72455C35.2174 5.72455 43.7102 14.3051 43.7091 24.8891Z" fill="white"/>
<path d="M24.9909 42.1098C34.3931 42.1098 42.0151 34.4578 42.0151 25.0186C42.0151 15.5794 34.3931 7.9274 24.9909 7.9274C15.5887 7.9274 7.96668 15.5794 7.96668 25.0186C7.96668 34.4578 15.5887 42.1098 24.9909 42.1098Z" fill="url(#paint1_radial)"/>
<path opacity="0.65" d="M25.8324 5.03424C14.4721 5.03424 5.25004 14.2564 5.25004 25.6169C5.25004 36.9774 14.4721 46.1964 25.8324 46.1964C37.1929 46.1964 46.4118 36.9775 46.4118 25.6169C46.4118 14.2563 37.1928 5.03424 25.8324 5.03424ZM25.6697 7.88527C27.4251 7.87245 29.1799 8.11348 30.8615 8.61131L28.2484 14.379L25.6541 20.0308L23.1036 14.3507L20.4812 8.68951C22.1581 8.16534 23.9143 7.89798 25.6697 7.88527ZM34.6356 10.2292C36.387 11.2484 38.2266 12.6283 40.0433 15.0423C37.4161 21.2921 34.5622 27.9888 31.9005 34.2605L28.383 26.2084H22.872L19.2638 34.1228C16.4931 27.9039 13.8173 21.705 11.3932 15.3396C13.1004 12.9271 14.8321 11.6226 16.5694 10.4701C18.6457 15.2263 20.7237 19.9812 22.8001 24.7374H28.3736C30.4642 19.9342 32.5439 15.0207 34.6356 10.2292ZM42.6 19.8837C42.8647 20.705 43.3228 22.2142 43.4951 24.5591C43.5799 25.7127 43.5351 27.2605 43.2603 28.762C42.7957 31.3019 41.7265 33.9044 40.0338 36.1633C39.682 36.6327 39.301 37.0866 38.8915 37.5309C37.343 39.2118 35.3444 40.74 32.9049 41.8277C33.6509 40.4996 34.3335 39.1495 34.9484 37.8063C35.8141 35.9153 36.6822 34.0266 37.4832 32.1137C37.6751 31.6557 37.8887 31.2058 38.0934 30.7524C38.8209 29.1421 39.5123 27.481 40.1808 25.8484C40.9015 24.0888 41.9557 21.687 42.6 19.8837ZM8.91766 20.3219C9.56196 22.1252 10.2281 23.9698 10.9487 25.7296C11.6172 27.3621 12.318 29.0015 13.0454 30.6116C14.7236 34.3264 16.4801 37.9965 18.3624 41.6619C15.154 40.1175 13.0097 38.0997 11.4056 35.863C8.89922 32.3681 8.09126 28.5244 8.1259 25.4667C8.15325 23.0538 8.64538 21.1192 8.91766 20.3219ZM25.5883 31.0778L30.924 42.563C29.5198 43.0344 28.0204 43.2342 26.4927 43.2734C26.2497 43.2796 26.0077 43.281 25.7636 43.2796C23.722 43.2683 21.9827 42.9961 20.3903 42.4503L25.5883 31.0778Z" fill="black"/>
<path opacity="0.5" d="M26.4343 4.85687C15.0739 4.85687 5.85202 14.079 5.85202 25.4396C5.85202 36.8002 15.0739 46.0191 26.4343 46.0191C37.7948 46.0191 47.0136 36.8002 47.0136 25.4396C47.0136 14.079 37.7948 4.85687 26.4343 4.85687ZM26.2716 7.7079C28.0269 7.69511 29.7818 7.93622 31.4633 8.43395L28.8503 14.2015L26.256 19.8534L23.7055 14.1734L21.083 8.51217C22.76 7.98803 24.5163 7.72062 26.2716 7.7079ZM35.2374 10.0519C36.9889 11.0713 38.8285 12.4509 40.6452 14.8651C38.018 21.1149 35.1641 27.8116 32.5023 34.0833L28.9848 26.0311H23.4739L19.8656 33.9456C17.0949 27.7267 14.4191 21.5278 11.995 15.1624C13.7023 12.7499 15.4339 11.4454 17.1712 10.2929C19.2475 15.0492 21.3256 19.8041 23.4019 24.5603H28.9755C31.0662 19.7568 33.1458 14.8434 35.2374 10.0519ZM43.202 19.7063C43.4667 20.5276 43.9246 22.0369 44.097 24.3819C44.1818 25.5355 44.1369 27.0832 43.8622 28.5848C43.3975 31.1247 42.3284 33.7272 40.6357 35.9861C40.2839 36.4555 39.9029 36.9093 39.4935 37.3536C37.9448 39.0346 35.9464 40.5627 33.5069 41.6504C34.2528 40.3223 34.9355 38.9721 35.5504 37.629C36.416 35.738 37.2842 33.8493 38.0853 31.9364C38.2772 31.4784 38.4907 31.0285 38.6955 30.5751C39.423 28.9648 40.1145 27.3037 40.783 25.6711C41.5034 23.9115 42.5576 21.5096 43.202 19.7063ZM9.51971 20.1445C10.1641 21.9478 10.8302 23.7925 11.5507 25.5523C12.2192 27.1847 12.92 28.8241 13.6474 30.4343C15.3256 34.149 17.0821 37.8192 18.9643 41.4846C15.7559 39.9402 13.6117 37.9224 12.0075 35.6857C9.50129 32.1908 8.69319 28.3471 8.72787 25.2895C8.7552 22.8765 9.24741 20.9419 9.51971 20.1445ZM26.1902 30.9006L31.5259 42.3859C30.1217 42.8572 28.6223 43.057 27.0946 43.0962C26.8516 43.1025 26.6096 43.1038 26.3655 43.1026C24.3238 43.0912 22.5846 42.8189 20.9921 42.2732L26.1902 30.9006Z" fill="black"/>
<path d="M25.0052 4.436C13.6447 4.436 4.42274 13.6581 4.42274 25.0187C4.42274 36.3792 13.6447 45.5982 25.0052 45.5982C36.3656 45.5982 45.5845 36.3792 45.5845 25.0187C45.5845 13.658 36.3656 4.436 25.0052 4.436ZM24.8424 7.287C26.5977 7.27416 28.3526 7.51522 30.0342 8.013L27.4211 13.7807L24.8268 19.4325L22.2763 13.7524L19.6537 8.09127C21.3308 7.56708 23.0871 7.29982 24.8424 7.287ZM33.8083 9.63094C35.5597 10.6502 37.3993 12.03 39.216 14.4441C36.5888 20.6938 33.7349 27.3905 31.0732 33.6622L27.5557 25.6101H22.0448L18.4365 33.5246C15.6657 27.3057 12.9901 21.1068 10.5659 14.7414C12.2731 12.3289 14.0048 11.0244 15.742 9.87193C17.8183 14.6281 19.8964 19.3831 21.9727 24.1392H27.5463C29.637 19.336 31.7166 14.4225 33.8083 9.63094ZM41.7728 19.2855C42.0375 20.1068 42.4954 21.6161 42.6677 23.9609C42.7526 25.1146 42.7077 26.6623 42.433 28.1639C41.9684 30.7037 40.8992 33.3062 39.2066 35.5651C38.8548 36.0346 38.4736 36.4884 38.0642 36.9327C36.5157 38.6135 34.5171 40.1419 32.0776 41.2294C32.8236 39.9013 33.5062 38.5513 34.1211 37.2081C34.9867 35.317 35.8549 33.4283 36.6559 31.5155C36.8478 31.0574 37.0614 30.6076 37.2662 30.1541C37.9937 28.544 38.6852 26.8828 39.3537 25.2503C40.0742 23.4905 41.1285 21.0888 41.7728 19.2855ZM8.09036 19.7236C8.73471 21.527 9.40086 23.3717 10.1214 25.1314C10.7898 26.7639 11.4907 28.4033 12.2181 30.0134C13.8963 33.7281 15.6528 37.3983 17.5351 41.0637C14.3268 39.5192 12.1824 37.5014 10.5783 35.2647C8.07204 31.7699 7.26401 27.9263 7.29865 24.8685C7.326 22.4557 7.81821 20.521 8.09036 19.7236ZM24.7611 30.4796L30.0968 41.9648C28.6926 42.4362 27.1932 42.636 25.6656 42.6752C25.4226 42.6814 25.1804 42.6828 24.9364 42.6814C22.8948 42.6701 21.1555 42.398 19.5631 41.8522L24.7611 30.4796Z" fill="url(#paint2_linear)" stroke="black" stroke-width="0.693659" stroke-miterlimit="18.2"/>
</g>
<defs>
<linearGradient id="paint0_linear" x1="18.1447" y1="15.5966" x2="45.9528" y2="53.7094" gradientUnits="userSpaceOnUse">
<stop stop-color="#1077B9"/>
<stop offset="1" stop-color="#042A54"/>
</linearGradient>
<radialGradient id="paint1_radial" cx="0" cy="0" r="1" gradientUnits="userSpaceOnUse" gradientTransform="translate(19.5833 12.4025) scale(62.5456 62.571)">
<stop stop-color="#209BD3"/>
<stop offset="0.546" stop-color="#136194"/>
<stop offset="1" stop-color="#0A3B6C"/>
</radialGradient>
<linearGradient id="paint2_linear" x1="13.6557" y1="8.85421" x2="60.045" y2="74.8736" gradientUnits="userSpaceOnUse">
<stop stop-color="white"/>
<stop offset="0.5" stop-color="white"/>
<stop offset="1" stop-color="#989B9E"/>
</linearGradient>
<clipPath id="clip0">
<rect width="50" height="50" fill="white"/>
</clipPath>
</defs>
</svg>
